HIERARCHY
ROOT Hips
{
  OFFSET 0 0 0
  CHANNELS 6 Xposition Yposition Zposition Zrotation Yrotation Xrotation
  JOINT LeftThigh
  {
    OFFSET 8.409438 0 -5.917753
    CHANNELS 3 Zrotation Yrotation Xrotation
    JOINT LeftLeg
    {
      OFFSET 0 0 -42.358652
      CHANNELS 3 Zrotation Yrotation Xrotation
      JOINT LeftFoot
      {
        OFFSET 0 0 -39.357303
        CHANNELS 3 Zrotation Yrotation Xrotation
      }
    }
  }
  JOINT RightThigh
  {
    OFFSET -8.409438 0 -5.917753
    CHANNELS 3 Zrotation Yrotation Xrotation
    JOINT RightLeg
    {
      OFFSET 0 0 -42.358652
      CHANNELS 3 Zrotation Yrotation Xrotation
      JOINT RightFoot
      {
        OFFSET 0 0 -39.357303
        CHANNELS 3 Zrotation Yrotation Xrotation
      }
    }
  }
  JOINT SpineLow
  {
    OFFSET 0 0 4.719101
    CHANNELS 3 Zrotation Yrotation Xrotation
    JOINT SpineMid
    {
      OFFSET 0 0 12.899191
      CHANNELS 3 Zrotation Yrotation Xrotation
      JOINT Chest
      {
        OFFSET 0 0 12.899191
        CHANNELS 3 Zrotation Yrotation Xrotation
        JOINT LeftShoulder
        {
          OFFSET 7.550562 1.41573 9.438202
          CHANNELS 3 Zrotation Yrotation Xrotation
          JOINT LeftArm
          {
            OFFSET 9.155056 0 4.247191
            CHANNELS 3 Zrotation Yrotation Xrotation
            JOINT LeftForearm
            {
              OFFSET 0 0 25.771955
              CHANNELS 3 Zrotation Yrotation Xrotation
              JOINT LeftHand
              {
                OFFSET 0 0 25.197169
                CHANNELS 3 Zrotation Yrotation Xrotation
              }
            }
          }
        }
        JOINT RightShoulder
        {
          OFFSET -7.550562 1.41573 9.438202
          CHANNELS 3 Zrotation Yrotation Xrotation
          JOINT RightArm
          {
            OFFSET -9.155056 0 4.247191
            CHANNELS 3 Zrotation Yrotation Xrotation
            JOINT RightForearm
            {
              OFFSET 0 0 -25.771955
              CHANNELS 3 Zrotation Yrotation Xrotation
              JOINT RightHand
              {
                OFFSET 0 0 -25.197169
                CHANNELS 3 Zrotation Yrotation Xrotation
              }
            }
          }
        }
        JOINT Neck
        {
          OFFSET 0 0 15.101124
          CHANNELS 3 Zrotation Yrotation Xrotation
          JOINT Head
          {
            OFFSET 0 0 11.325843
            CHANNELS 3 Zrotation Yrotation Xrotation
            End Site
            {
              OFFSET 0 0 14.157303
            }
          }
        }
      }
    }
  }
}
MOTION
Frames: 10
Frame Time: 0.0
0.0  93.25843  0.0  -1.259885  0.791164  -85.258734  21.263741  -21.144962  -6.574079  -3.526219  3.703535  17.902248  -2.723188  0.488252  -2.07807  -9.795682  -0.370254  -19.998425  -0.198367  17.014359  31.703621  0.265627  2.326158  -1.584655  4.486707  0.262477  -0.90693  12.252793  0.882339  -2.420757  12.252793  0.882339  -2.420756  3.997286  13.800299  4.357309  159.354012  16.156197  171.755894  -9.025072  22.774179  99.321269  54.406089  -29.604456  5.702131  24.836592  -7.836078  15.47003  -177.871452  74.095403  147.540277  -45.833775  11.479834  -122.425802  84.2608  13.711251  4.824967  -19.769354  -4.805393  1.717433  -14.804926  -3.664162  1.132862  
0.0  93.25843  0.0  -1.299156  -0.765275  -85.439792  21.418129  -20.922558  -5.602975  -3.064737  3.25398  17.367375  -2.610563  0.420275  -2.147959  -8.869875  -0.475936  -19.940873  0.077718  16.897438  31.472735  0.5952  2.53671  -1.526441  4.396826  0.225815  -0.862877  12.008958  0.77131  -2.308774  12.008959  0.77131  -2.308773  2.840373  13.933108  4.026818  160.761184  16.947333  172.186695  -7.631834  19.018708  100.662365  57.61704  -27.888448  7.25133  24.123301  -8.113984  15.779088  173.628491  76.285848  137.926584  -46.990512  13.251105  -120.683015  84.732333  12.522848  4.317684  -18.699352  -4.675071  1.576487  -14.004755  -3.5585  1.039459  
0.0  93.25843  0.0  -1.351766  -2.408828  -85.62306  21.455674  -20.735691  -4.589333  -2.511793  2.838314  16.767167  -2.48376  0.312083  -2.212184  -8.080773  -0.578024  -19.80402  0.462078  16.673462  31.055659  0.451332  2.492405  -1.462809  4.287222  0.177878  -0.81809  11.71145  0.629084  -2.196694  11.711451  0.629085  -2.196694  2.624409  14.097847  3.936955  161.398957  17.817349  172.914806  -6.187982  15.018114  102.200165  60.894593  -26.079503  8.490052  23.423026  -8.336943  16.183015  161.47991  77.868368  124.541767  -48.014016  15.089101  -118.794792  85.406417  11.017797  3.78477  -17.472819  -4.538443  1.467515  -13.08693  -3.449139  0.970944  
0.0  93.25843  0.0  -1.470618  -4.065835  -85.748552  21.415102  -20.546436  -3.585433  -1.866802  2.382933  16.10631  -2.376852  0.173252  -2.278279  -7.395058  -0.697081  -19.649831  0.922936  16.36537  30.529001  0.58385  2.5449  -1.380284  4.151476  0.128194  -0.785014  11.342289  0.483642  -2.116572  11.342289  0.483642  -2.116572  2.350285  14.289891  3.701114  162.107861  18.691471  173.768726  -4.80209  10.798606  103.80529  64.055075  -24.359152  9.511382  22.776081  -8.61046  16.639631  146.189473  78.590126  107.951118  -48.853436  16.97052  -116.777422  86.255002  9.404577  3.127266  -16.143804  -4.415126  1.38419  -12.091915  -3.350686  0.921511  
0.0  93.25843  0.0  -1.568138  -5.704354  -85.889149  21.2358  -20.318601  -2.534804  -1.138778  1.921894  15.449727  -2.33264  0.043909  -2.341852  -6.815953  -0.76664  -19.476011  1.312339  15.995839  29.908289  0.461928  2.457575  -1.312873  4.000047  0.085464  -0.738718  10.930038  0.354784  -1.998778  10.930038  0.354784  -1.998777  2.159782  14.504077  3.383651  162.614141  19.518394  174.811351  -3.589612  6.610227  105.278293  66.534505  -22.552613  10.262528  22.030446  -8.862672  17.245767  130.485378  78.433454  90.863462  -49.454002  18.854221  -114.695815  87.452043  7.685601  2.328787  -14.751771  -4.294992  1.273498  -11.049736  -3.254235  0.851385  
0.0  93.25843  0.0  -1.632909  -7.326792  -86.057174  20.918421  -20.08713  -1.498004  -0.373041  1.571588  14.800383  -2.238911  -0.116641  -2.341047  -6.288667  -0.83078  -19.251655  1.869927  15.633595  29.281087  0.346091  2.34742  -1.260724  3.856787  0.046478  -0.687818  10.539878  0.236143  -1.867197  10.539878  0.236143  -1.867198  1.752108  14.786002  3.016271  163.07622  20.293472  176.008215  -2.626496  2.953245  106.48466  68.499713  -20.728676  10.796845  20.987801  -9.037012  18.06217  116.331754  77.552436  75.219569  -49.722914  20.645027  -112.642879  88.972537  5.828486  1.217957  -13.379861  -4.138609  1.162258  -10.02269  -3.131183  0.780987  
0.0  93.25843  0.0  -1.636165  -8.852268  -86.294882  20.470147  -19.849854  -0.455676  0.44787  1.302396  14.2037  -2.115499  -0.299222  -2.301505  -5.889766  -0.860905  -18.978962  2.16511  15.309755  28.536203  0.302764  2.253163  -1.203234  3.713631  0.022461  -0.625018  10.149494  0.157031  -1.700358  10.149494  0.157031  -1.700358  1.145585  15.050212  2.674705  163.443242  21.030781  177.403532  -1.9885  0.032432  107.370784  70.106879  -19.172857  11.663631  19.734925  -9.12903  18.929916  104.179947  76.120074  61.665366  -49.630754  22.312985  -110.698192  90.715793  3.847428  -0.038669  -12.06146  -3.989515  1.023578  -9.035777  -3.01373  0.688825  
0.0  93.25843  0.0  -1.616467  -10.515393  -86.651845  20.176545  -19.63952  0.671543  1.361737  1.036831  13.609892  -1.998192  -0.446921  -2.219738  -5.262862  -0.82406  -18.541181  2.541902  14.964632  27.768504  0.008495  2.125766  -1.196377  3.599215  -0.011615  -0.544498  9.837783  0.049238  -1.486272  9.837783  0.049237  -1.486271  0.365086  15.419796  2.424527  163.747785  21.771232  179.019395  -1.709909  -2.293099  107.837477  71.307212  -17.923633  12.694106  18.383611  -9.119233  19.922631  94.828229  74.217281  51.14184  -49.476294  23.997144  -108.877423  92.692401  1.698361  -1.165639  -10.72603  -3.762357  0.891422  -8.036156  -2.838449  0.602419  
0.0  93.25843  0.0  -1.631713  -11.911138  -86.88257  19.80856  -19.484747  1.650358  2.346771  0.783812  12.941282  -2.026409  -0.559489  -2.152936  -4.989999  -0.844185  -18.213413  2.798245  14.613127  26.885161  0.017964  2.036851  -1.158739  3.417278  -0.066986  -0.494937  9.341718  -0.112839  -1.359211  9.341717  -0.112839  -1.359211  -0.303184  15.894217  2.342235  163.959164  22.496717  -179.174434  -1.587288  -3.896818  107.941848  72.61853  -16.622568  13.823189  17.110803  -8.872122  21.106222  87.985073  72.036843  43.203338  -49.440073  25.830964  -107.076941  94.647886  -0.561556  -2.246101  -9.337932  -3.503023  0.778334  -6.996814  -2.63989  0.530125  
0.0  93.25843  0.0  -1.620956  -13.35176  -87.12849  19.74049  -19.357946  2.67811  3.344103  0.541549  12.194483  -2.070044  -0.643629  -2.0478  -4.573594  -0.828663  -17.814285  2.878363  14.260374  25.875826  0.021657  1.998387  -1.128419  3.240697  -0.122285  -0.441373  8.860063  -0.274485  -1.220333  8.860063  -0.274485  -1.220333  -1.522633  16.467547  2.108873  164.534605  23.269677  -177.315941  -1.468976  -4.949891  107.929806  74.065102  -15.204501  14.61559  15.872256  -8.539865  22.18977  83.252439  69.600409  37.537585  -49.501653  27.884437  -105.126853  96.314309  -2.651024  -3.211303  -7.925336  -3.204507  0.697062  -5.938803  -2.412901  0.481159  
